<?xml version="1.0" encoding="UTF-8" standalone="no"?>
<!DOCTYPE svg PUBLIC "-//W3C//DTD SVG 1.1//EN" "http://www.w3.org/Graphics/SVG/1.1/DTD/svg11.dtd">
<svg width="100%" height="100%" viewBox="0 0 6267 2969" version="1.1" xmlns="http://www.w3.org/2000/svg" xmlns:xlink="http://www.w3.org/1999/xlink" xml:space="preserve" xmlns:serif="http://www.serif.com/" style="fill-rule:evenodd;clip-rule:evenodd;stroke-linejoin:round;stroke-miterlimit:2;">
    <g transform="matrix(1,0,0,1,-8420.65,-1.81899e-12)">
        <g id="Prancheta1" transform="matrix(0.857714,0,0,0.760428,1518.39,8802.6)">
            <rect x="8047.27" y="-11575.8" width="7306.02" height="3903.5" style="fill:none;"/>
            <clipPath id="_clip1">
                <rect x="8047.27" y="-11575.8" width="7306.02" height="3903.5"/>
            </clipPath>
            <g clip-path="url(#_clip1)">
                <g transform="matrix(1.79766,0,0,2.10135,6796.78,-1478.42)">
                    <g>
                        <g transform="matrix(83.9895,0,0,81.3826,18741,19027.1)">
                            <g transform="matrix(0.433901,0,0,0.433901,-183.163,-279.19)">
                                <path d="M0,-29.154L-37.772,-29.154L-37.772,-29.15C-42.017,-28.535 -45.281,-24.892 -45.281,-20.477C-45.281,-18.119 -44.347,-15.984 -42.834,-14.407C-41.237,-12.743 -38.995,-11.702 -36.506,-11.702L-12.993,-11.702L-12.881,-11.69C-11.304,-11.63 -10.04,-10.341 -10.04,-8.749C-10.04,-7.156 -11.304,-5.867 -12.881,-5.806L-12.881,-5.8L-12.952,-5.8C-12.966,-5.8 -12.979,-5.796 -12.993,-5.796C-13.008,-5.796 -13.021,-5.8 -13.035,-5.8L-88.224,-5.8L-88.224,-0.007L-13.415,-0.007C-13.273,0 -12.065,-0.026 -12.065,-0.026C-12.057,-0.027 -12.047,-0.027 -12.037,-0.028C-7.642,-0.505 -4.219,-4.225 -4.219,-8.749C-4.219,-13.271 -7.642,-16.992 -12.037,-17.469L-12.574,-17.493L-15.604,-17.493L-15.067,-17.495L-36.422,-17.495L-36.422,-17.499C-36.435,-17.499 -36.446,-17.495 -36.458,-17.495C-37.088,-17.495 -37.671,-17.693 -38.153,-18.025C-38.941,-18.556 -39.459,-19.455 -39.459,-20.477C-39.459,-20.89 -39.369,-21.281 -39.215,-21.637C-39.198,-21.677 -39.174,-21.713 -39.155,-21.753C-39.098,-21.87 -39.041,-21.986 -38.97,-22.093C-38.438,-22.922 -37.515,-23.473 -36.458,-23.473C-36.431,-23.473 -36.406,-23.466 -36.38,-23.466L-36.38,-23.472L0,-23.472L0,-29.154Z" style="fill:url(#_Linear2);fill-rule:nonzero;"/>
                            </g>
                            <g transform="matrix(0.167992,0,0,0.167992,-218.224,-1054.92)">
                                <path d="M204.267,4542.4L224.542,4542.4L249.886,4617.89L234.1,4617.89L228.965,4602.6L199.843,4602.6L194.708,4617.89L178.922,4617.89L204.267,4542.4ZM214.404,4559.23L204.868,4587.63L223.941,4587.63L214.404,4559.23Z" style="fill:rgb(224,30,38);"/>
                            </g>
                            <g transform="matrix(0.433901,7.46035e-17,-1.67858e-16,0.433901,-169.648,-279.148)">
                                <path d="M0,-29.259L0,-7.64C0,-6.62 -0.827,-5.794 -1.847,-5.794L-18.947,-5.794L-18.947,0L-1.622,0C2.474,0 5.793,-3.32 5.793,-7.415L5.793,-29.259L0,-29.259Z" style="fill:rgb(252,231,18);fill-rule:nonzero;"/>
                            </g>
                            <g transform="matrix(0.187303,0,0,0.167992,-223.19,-1054.67)">
                                <rect x="266.735" y="4540.59" width="24.213" height="14.963" style="fill:rgb(252,231,18);fill-rule:nonzero;"/>
                            </g>
                        </g>
                        <g transform="matrix(0.883446,0,0,0.883446,425.855,-401.763)">
                            <g transform="matrix(11.5375,0,0,11.1794,622.145,-55107.8)">
                                <path d="M341.265,4638.48C341.031,4641.25 339.532,4643.78 337.179,4645.3L301.619,4668.39C299.848,4669.53 297.478,4669.03 296.329,4667.26C295.179,4665.49 295.684,4663.12 297.454,4661.97L333.014,4638.89C333.179,4638.78 333.317,4638.64 333.422,4638.48L341.265,4638.48Z" style="fill:white;"/>
                            </g>
                            <g transform="matrix(11.5375,0,0,11.1794,622.145,-55107.8)">
                                <path d="M324.153,4638.48C323.917,4639.44 323.318,4640.27 322.466,4640.81L301.645,4653.81C299.854,4654.93 297.493,4654.38 296.375,4652.59C295.257,4650.8 295.802,4648.44 297.593,4647.32L311.75,4638.48L324.153,4638.48ZM311.203,4635.75L298.147,4626.58C296.419,4625.36 296.002,4622.98 297.215,4621.25C298.428,4619.52 300.816,4619.1 302.543,4620.32L322.639,4634.43C323.133,4634.78 323.53,4635.23 323.807,4635.75L311.203,4635.75Z" style="fill:white;"/>
                            </g>
                            <g transform="matrix(11.5375,0,0,11.1794,622.145,-55107.8)">
                                <path d="M331.838,4635.75L299.095,4613.25C297.355,4612.06 296.913,4609.68 298.108,4607.94C299.303,4606.19 301.686,4605.75 303.426,4606.95L337.376,4630.27C339.278,4631.58 340.585,4633.55 341.078,4635.75L331.838,4635.75Z" style="fill:white;"/>
                            </g>
                        </g>
                        <g transform="matrix(1.78439,0,0,1.7218,-291.866,-11514.7)">
                            <g transform="matrix(1,0,0,1,-5.90871,0)">
                                <path d="M1585.17,4902.48L1585.17,4644.53L1530.85,4644.53L1434.07,4850.74L1337.68,4644.53L1282.22,4644.53L1282.22,4902.48L1328.67,4902.48L1328.67,4733.76L1410.07,4902.48L1456.95,4902.48L1538.72,4733.76L1538.72,4902.48L1585.17,4902.48Z" style="fill:white;fill-rule:nonzero;stroke:white;stroke-width:2.28px;"/>
                            </g>
                            <g transform="matrix(1,0,0,1,-9.30338,0)">
                                <path d="M1845.84,4902.48C1907.32,4902.48 1926.42,4882.25 1926.42,4818.9L1926.42,4728.12C1926.42,4664.76 1907.32,4644.53 1845.84,4644.53L1709.68,4644.53C1647.08,4644.53 1629.1,4664.76 1629.1,4728.12L1629.1,4818.9C1629.1,4882.25 1647.08,4902.48 1709.68,4902.48L1845.84,4902.48ZM1875.85,4819.27C1875.85,4844.78 1868.72,4851.9 1845.47,4851.9L1709.68,4851.9C1686.43,4851.9 1679.3,4844.78 1679.3,4819.27L1679.3,4728.49C1679.3,4702.98 1687.18,4695.48 1709.68,4695.48L1845.47,4695.48C1867.97,4695.48 1875.85,4702.98 1875.85,4728.49L1875.85,4819.27Z" style="fill:white;fill-rule:nonzero;stroke:white;stroke-width:2.28px;"/>
                            </g>
                            <g transform="matrix(1,0,0,1,-11.8099,0)">
                                <path d="M2176.59,4902.48C2232.07,4902.48 2255.3,4887.12 2255.3,4833.89L2255.3,4817C2255.3,4785.87 2237.69,4772.01 2215.21,4769.01C2237.69,4765.26 2249.3,4751.78 2249.3,4726.64L2249.3,4710.5C2249.3,4659.52 2230.57,4644.53 2176.59,4644.53L1971.1,4644.53L1971.1,4902.48L2176.59,4902.48ZM2205.1,4827.89C2205.1,4845.15 2198.72,4851.9 2176.59,4851.9L2021.67,4851.9L2021.67,4792.61L2178.47,4792.61C2199.47,4792.61 2205.1,4799.36 2205.1,4818.5L2205.1,4827.89ZM2199.1,4727.39C2199.1,4745.03 2193.1,4751.4 2176.97,4751.4L2021.67,4751.4L2021.67,4695.48L2176.59,4695.48C2193.1,4695.48 2199.1,4701.11 2199.1,4717.63L2199.1,4727.39Z" style="fill:white;fill-rule:nonzero;stroke:white;stroke-width:2.28px;"/>
                            </g>
                            <g transform="matrix(1,0,0,1,-5.45704,0)">
                                <rect x="2296.6" y="4644.53" width="50.578" height="257.953" style="fill:white;fill-rule:nonzero;stroke:white;stroke-width:2.28px;"/>
                            </g>
                        </g>
                    </g>
                </g>
            </g>
        </g>
    </g>
    <defs>
        <linearGradient id="_Linear2" x1="0" y1="0" x2="1" y2="0" gradientUnits="userSpaceOnUse" gradientTransform="matrix(-30.9054,3.78482e-15,-3.78482e-15,-30.9054,-37.7216,-3.43658)"><stop offset="0" style="stop-color:rgb(47,244,28);stop-opacity:1"/><stop offset="1" style="stop-color:rgb(47,244,28);stop-opacity:0"/></linearGradient>
    </defs>
</svg>
